<svg xmlns="http://www.w3.org/2000/svg" width="256" height="256" viewBox="0 0 256 256" fill="none"><rect width="256" height="256" fill="#111827"/><path d="M 62 154 C 50 154, 42 146, 42 134 C 42 120, 52 110, 66 110 C 70 88, 90 72, 114 72 C 130 72, 146 80, 156 94 C 162 92, 168 90, 176 90 C 198 90, 214 106, 214 128 C 214 144, 204 154, 190 154 Z" stroke="#45D5FA" stroke-width="6" stroke-linecap="round" stroke-linejoin="round" fill="none" opacity="1"/><line x1="86" y1="154" x2="86" y2="182" stroke="#74E7D4" stroke-width="5" stroke-linecap="round" opacity="1"/><line x1="128" y1="154" x2="128" y2="182" stroke="#74E7D4" stroke-width="5" stroke-linecap="round" opacity="1"/><line x1="170" y1="154" x2="170" y2="182" stroke="#B6EF73" stroke-width="5" stroke-linecap="round" opacity="1"/><rect x="70" y="184" width="32" height="18" rx="7" stroke="#45D5FA" stroke-width="5" fill="none" opacity="1"/><rect x="112" y="184" width="32" height="18" rx="7" stroke="#45D5FA" stroke-width="5" fill="none" opacity="1"/><rect x="154" y="184" width="32" height="18" rx="7" stroke="#B6EF73" stroke-width="5" fill="none" opacity="1"/></svg>