<svg xmlns="http://www.w3.org/2000/svg" width="256" height="256" viewBox="0 0 256 256" fill="none"><rect width="256" height="256" fill="#111827"/><rect x="34" y="34" width="188" height="188" rx="16" stroke="#45D5FA" stroke-width="6" fill="none" opacity="1"/><line x1="34" y1="64" x2="222" y2="64" stroke="#45D5FA" stroke-width="5" stroke-linecap="round" opacity="1"/><circle cx="52" cy="49" r="4" fill="#74E7D4" opacity="1"/><circle cx="66" cy="49" r="4" fill="#74E7D4" opacity="1"/><circle cx="80" cy="49" r="4" fill="#B6EF73" opacity="1"/><line x1="62" y1="92" x2="194" y2="92" stroke="#45D5FA" stroke-width="5" stroke-linecap="round" opacity="1"/><circle cx="92" cy="114" r="8" stroke="#74E7D4" stroke-width="5" fill="none" opacity="1"/><circle cx="132" cy="114" r="8" stroke="#45D5FA" stroke-width="5" fill="none" opacity="1"/><circle cx="172" cy="114" r="8" stroke="#B6EF73" stroke-width="5" fill="none" opacity="1"/><path d="M 80 138 C 80 128, 104 128, 104 138" stroke="#74E7D4" stroke-width="5" stroke-linecap="round" stroke-linejoin="round" fill="none" opacity="1"/><path d="M 120 138 C 120 128, 144 128, 144 138" stroke="#45D5FA" stroke-width="5" stroke-linecap="round" stroke-linejoin="round" fill="none" opacity="1"/><path d="M 160 138 C 160 128, 184 128, 184 138" stroke="#B6EF73" stroke-width="5" stroke-linecap="round" stroke-linejoin="round" fill="none" opacity="1"/><rect x="96" y="164" width="64" height="18" rx="7" stroke="#45D5FA" stroke-width="5" fill="none" opacity="1"/></svg>